<?xml version="1.0" encoding="UTF-8" standalone="no"?>
<!-- Created with Inkscape (http://www.inkscape.org/) -->

<svg
   width="900"
   height="900"
   viewBox="0 0 238.12499 238.125"
   version="1.1"
   id="svg1"
   xml:space="preserve"
   inkscape:version="1.3 (1:1.3+202307231459+0e150ed6c4)"
   sodipodi:docname="map-texas.svg"
   inkscape:export-filename="map-texas.png"
   inkscape:export-xdpi="53.333332"
   inkscape:export-ydpi="53.333332"
   xmlns:inkscape="http://www.inkscape.org/namespaces/inkscape"
   xmlns:sodipodi="http://sodipodi.sourceforge.net/DTD/sodipodi-0.dtd"
   xmlns="http://www.w3.org/2000/svg"
   xmlns:svg="http://www.w3.org/2000/svg"><sodipodi:namedview
     id="namedview1"
     pagecolor="#ffffff"
     bordercolor="#000000"
     borderopacity="0.25"
     inkscape:showpageshadow="2"
     inkscape:pageopacity="0.0"
     inkscape:pagecheckerboard="0"
     inkscape:deskcolor="#d1d1d1"
     inkscape:document-units="px"
     inkscape:zoom="0.40622896"
     inkscape:cx="396.32822"
     inkscape:cy="561.25984"
     inkscape:window-width="1280"
     inkscape:window-height="656"
     inkscape:window-x="0"
     inkscape:window-y="0"
     inkscape:window-maximized="1"
     inkscape:current-layer="layer1" /><defs
     id="defs1" /><g
     inkscape:label="Capa 1"
     inkscape:groupmode="layer"
     id="layer1"><path
       style="fill:#000000;stroke-width:1.08405"
       d="m 176.82936,230.58193 c -0.39626,-0.31169 -0.72047,-0.74849 -0.72047,-0.97067 0,-0.22217 -0.29041,-0.46626 -0.64535,-0.54241 -0.35494,-0.0762 -2.19419,-0.46106 -4.08721,-0.85533 -32.62678,-6.7954 -29.47549,-6.20655 -29.90826,-5.58869 -0.79747,1.13856 -2.9329,0.3529 -2.9329,-1.07907 0,-0.31807 0.24222,-0.79752 0.53826,-1.06543 0.52502,-0.47514 0.51907,-0.54499 -0.24208,-2.84098 -0.42918,-1.29462 -1.99436,-6.20907 -3.47818,-10.92101 -2.32537,-7.38431 -2.78823,-8.60153 -3.35244,-8.81618 -0.51658,-0.19655 -0.64269,-0.44632 -0.59822,-1.18481 0.0479,-0.79599 -0.97077,-2.41392 -6.81961,-10.83114 -16.60764,-23.90041 -19.34788,-27.88859 -19.23777,-27.99871 0.0643,-0.0643 2.65091,3.53099 5.74815,7.9894 3.09725,4.4584 9.03149,13.00084 13.18722,18.98319 6.15962,8.86706 7.68453,10.889 8.25216,10.94185 0.56195,0.0524 2.03832,-1.27112 7.65174,-6.85929 3.82549,-3.80828 6.9554,-6.79606 6.95535,-6.63952 -5e-5,0.15654 -3.08641,3.34709 -6.8586,7.09011 -5.21375,5.17345 -6.82444,6.93575 -6.71644,7.3487 0.0994,0.38005 1.3195,1.04395 4.06207,2.21027 2.15601,0.91687 4.82352,2.07475 5.92778,2.57304 1.10427,0.49831 3.49207,1.53517 5.30622,2.30416 1.81414,0.76897 3.61433,1.55845 4.00039,1.7544 1.37432,0.69752 1.43552,0.0885 0.38679,-3.84922 -1.43946,-5.40488 -3.12505,-11.80381 -4.14248,-15.72587 -0.71386,-2.75179 -1.02258,-3.51736 -1.50367,-3.72869 -0.33296,-0.14626 -0.6453,-0.54616 -0.69408,-0.88869 -0.0709,-0.49778 -4.21586,-2.95396 -20.65121,-12.23728 -17.41405,-9.83612 -20.68933,-11.58998 -21.39081,-11.45447 -0.62925,0.12157 -0.93943,0.013 -1.2907,-0.45188 -0.38399,-0.50818 -1.07029,-0.69688 -4.047673,-1.11295 -1.9719,-0.27555 -3.2626,-0.53792 -2.86822,-0.58301 0.39438,-0.0451 2.00775,0.10082 3.585273,0.32426 1.79651,0.25447 2.99164,0.30617 3.1985,0.13839 0.23929,-0.19407 0.0131,-0.83761 -0.82069,-2.33567 -0.63304,-1.13728 -2.0818,-3.74569 -3.219483,-5.79647 -7.893623,-14.22913 -8.901112,-15.91864 -9.492577,-15.91864 -0.430721,0 -2.641521,2.54245 -8.146158,9.36817 -4.155252,5.1525 -7.608169,9.57314 -7.67315,9.82367 -0.303357,1.16952 0.370137,1.35744 8.800813,2.45558 7.447517,0.97009 9.393058,1.29217 7.863711,1.30184 -0.302359,0.002 -4.07552,-0.46423 -8.384805,-1.03588 l -7.835062,-1.03935 -0.644682,0.60564 c -0.354574,0.33311 -0.959038,0.60895 -1.343251,0.613 -0.611642,0.007 -1.148164,0.81841 -4.311585,6.5252 -3.535756,6.37848 -3.604173,6.53555 -3.199483,7.34511 0.375106,0.75038 0.361533,0.89697 -0.146071,1.57753 -0.69834,0.93627 -1.330732,1.07233 -2.233847,0.48058 -0.46636,-0.30556 -0.702953,-0.72832 -0.702953,-1.25605 0,-0.74793 -0.655459,-1.1643 -10.970953,-6.96891 -9.363174,-5.26875 -11.064284,-6.13281 -11.60781,-5.89609 -0.871103,0.3794 -1.5731,-0.23231 -1.463683,-1.27543 0.08681,-0.8276 0.565894,-0.14657 -26.375165,-37.49285 -4.4766513,-6.20563 -8.0877543,-11.33458 -8.0246723,-11.39766 0.140984,-0.14099 -0.853377,-1.49515 12.1260733,16.51394 18.789064,26.07 22.334921,30.96064 22.40012,30.89543 0.0349,-0.0349 -1.573953,-4.5666 -3.575227,-10.07047 -2.916221,-8.02013 -3.757924,-10.05113 -4.239245,-10.22919 -0.668605,-0.24733 -1.027144,-0.92745 -0.80041,-1.51831 0.161021,-0.41962 -25.5705853,-25.91211 -26.0240173,-25.7822 -0.142749,0.0409 -0.334298,-0.12043 -0.425662,-0.35852 -0.100784,-0.26265 -0.5313638,-0.43289 -1.0948544,-0.43289 -1.04562466,0 -1.8781120649507,-0.73197 -1.8781120649507,-1.65133 0,-1.49484 2.1125460649507,-2.05646 3.0594174649507,-0.81333 l 0.525861,0.69039 30.2095193,0.30157 30.209519,0.30158 0.936543,-0.93654 0.936542,-0.93655 0.191348,-17.479869 c 0.10524,-9.613933 0.320871,-27.482808 0.479175,-39.708608 0.158305,-12.2258 0.318709,-24.771269 0.356454,-27.878819 0.06248,-5.143898 0.02428,-5.661685 -0.426402,-5.779493 -0.272266,-0.07117 -0.645518,-0.459686 -0.829447,-0.8633666 -0.508114,-1.115188 0.289541,-2.191575 1.624061,-2.191575 0.801269,0 1.071603,0.149657 1.341888,0.742868 l 0.338474,0.742867 5.893763,-0.16653 c 3.241569,-0.09159 13.767034,-0.245002 23.389922,-0.340915 l 17.496163,-0.174386 0.58957,-0.724627 c 0.64459,-0.792244 1.84509,-0.963961 2.56459,-0.366833 0.81511,0.676476 0.39325,2.50554 -0.67232,2.9150526 -0.32041,0.123137 1.59191,36.207329 1.92476,36.318973 0.63875,0.214252 1.18521,0.842981 1.27743,1.469757 0.0924,0.628067 1.18883,1.107457 11.9802,5.238169 9.94643,3.807287 11.9861,4.499369 12.54021,4.255027 0.72816,-0.321094 1.60224,-0.009 1.86061,0.664291 0.0843,0.219757 0.76899,0.478007 1.53957,0.580719 0.76323,0.101738 5.77608,0.89549 11.13966,1.763903 23.76173,3.847245 21.94579,3.596335 22.65674,3.130504 0.51203,-0.335498 0.79908,-0.356655 1.36159,-0.100351 0.60437,0.275371 1.51492,0.07792 5.98679,-1.29823 11.36051,-3.496017 11.72752,-3.622198 11.72752,-4.031966 0,-0.536373 0.98377,-1.042774 1.58075,-0.813695 0.26126,0.100254 0.57087,0.441426 0.68805,0.75816 0.168,0.454166 2.03806,1.199507 8.84801,3.526516 7.34317,2.509208 8.68609,2.889093 8.97641,2.539268 0.51561,-0.621281 2.19689,-0.526931 2.55565,0.143421 0.46799,0.874444 0.35042,1.667593 -0.34293,2.313549 l -0.63984,0.596109 1.50239,15.07429 c 1.42275,14.275212 1.53595,15.101482 2.13534,15.586842 0.52659,0.42641 0.58295,0.62664 0.33534,1.19158 -0.26111,0.59579 0.25622,1.698808 4.21967,8.996888 3.44991,6.35247 4.65799,8.33952 5.11283,8.40959 1.01231,0.15593 1.24659,1.02162 0.5248,1.93922 -0.5806,0.73812 -0.7253,1.83465 -1.828,13.85216 l -1.1975,13.05061 0.68703,0.54042 c 0.81797,0.64342 0.88929,1.66094 0.16251,2.31867 -0.60229,0.54506 -1.79158,0.62526 -2.26416,0.15268 -0.23812,-0.23812 -2.11667,0.63976 -7.2116,3.37017 -6.44719,3.45508 -6.89524,3.74684 -6.97762,4.54369 -0.12261,1.18605 -1.32319,1.86662 -2.33635,1.32439 -0.67896,-0.36336 -1.32304,-0.0296 -12.47652,6.46468 -10.07163,5.86437 -11.77416,6.95078 -11.85511,7.56486 -0.0755,0.57266 -0.27963,0.73496 -1.0138,0.80597 -0.76343,0.0738 -2.37761,1.47882 -9.52142,8.2874 -8.09654,7.71661 -8.59236,8.24736 -8.43581,9.03011 0.1244,0.62202 0.002,1.00602 -0.48374,1.52358 l -0.65005,0.69195 1.18331,7.8286 c 2.03055,13.43372 4.04377,26.44722 4.18406,27.04568 0.0739,0.3155 0.42844,0.70272 0.78774,0.86047 0.96035,0.42165 1.33019,1.69895 0.6951,2.40071 -0.74361,0.82169 -1.51444,0.91304 -2.3249,0.27554 z m -10.88522,-12.67618 c -9.44284,-9.26243 -10.68026,-10.38007 -11.37902,-10.27752 -0.57523,0.0845 -2.39652,1.78356 -6.83887,6.38018 -5.35598,5.54199 -6.03403,6.34802 -5.87454,6.98343 0.14747,0.5876 0.4493,0.7777 1.65862,1.04461 12.12069,2.67527 32.51361,6.74183 32.74197,6.52908 0.18457,-0.17194 -3.49061,-3.97247 -10.30816,-10.65978 z m 9.734,-1.24782 c -0.91999,-5.96066 -2.13676,-13.92104 -2.70393,-17.68974 -0.97005,-6.44571 -1.07046,-6.86668 -1.69273,-7.09687 -0.59149,-0.21882 -1.44877,0.50413 -8.09924,6.8301 -6.16338,5.86263 -7.43773,7.20826 -7.43773,7.85377 0,0.6445 1.81444,2.57014 10.50935,11.15347 7.17313,7.08107 10.60264,10.28121 10.80317,10.08066 0.20055,-0.20055 -0.23718,-3.73424 -1.37889,-11.13139 z m -27.05148,-4.05061 c 3.6189,-3.733 5.07391,-5.42301 5.01292,-5.8226 -0.0647,-0.42416 -1.07133,-0.98918 -4.08159,-2.29106 -10.95188,-4.7365 -15.94533,-6.84773 -16.19612,-6.84773 -0.15198,0 -0.27632,0.17095 -0.27632,0.3799 0,0.20896 1.53234,5.20833 3.40519,11.10971 3.07893,9.70174 3.47054,10.74761 4.08721,10.91572 0.54913,0.14971 0.90299,-0.045 1.81594,-0.99921 0.62366,-0.65183 3.4284,-3.55197 6.23277,-6.44473 z m 15.14887,-14.96629 c 5.34434,-5.05814 6.44315,-6.23134 6.39322,-6.82614 -0.0332,-0.39503 -0.16223,-0.81454 -0.28682,-0.93223 -0.55638,-0.52556 -20.85636,-8.00466 -21.09063,-7.77039 -0.15141,0.15141 0.17442,1.89248 0.79316,4.23833 1.36,5.15621 3.74423,14.36223 4.3367,16.74495 0.63645,2.5596 1.07671,2.85881 2.38284,1.6194 0.55992,-0.53132 3.92211,-3.71457 7.47153,-7.07392 z m 7.57324,-11.32458 c -0.0915,-1.26202 -0.44994,-6.45525 -0.79666,-11.54051 -0.36551,-5.36074 -0.76029,-9.37582 -0.9395,-9.55504 -0.3856,-0.3856 -20.43086,15.11925 -20.45147,15.81905 -0.01,0.34429 2.6371,1.46741 10.52718,4.46628 10,3.80081 10.5737,3.98321 11.18371,3.55556 0.6018,-0.42188 0.63233,-0.59778 0.47674,-2.74534 z m 11.25085,-6.53636 c 5.3529,-5.11313 7.74231,-7.58041 7.65609,-7.90564 -0.088,-0.3321 -2.95801,-1.46869 -9.64577,-3.81999 -8.02306,-2.82077 -9.58327,-3.28638 -9.91996,-2.96039 -0.34142,0.33057 -0.32969,1.42223 0.0807,7.50614 1.01844,15.10012 1.07641,15.70435 1.54216,16.07415 0.54854,0.43555 0.24242,0.70024 10.28684,-8.89427 z m -34.97165,0.4286 c 0.22682,-0.14418 0.64373,-3.54435 1.219,-9.94168 0.48085,-5.34741 0.87428,-9.87154 0.87428,-10.05363 0,-0.18208 -0.32616,-0.50561 -0.7248,-0.71896 -0.39864,-0.21335 -0.79717,-0.67626 -0.88563,-1.02869 -0.14549,-0.57969 -0.38409,-0.65626 -2.50195,-0.80294 -2.92884,-0.20286 -39.75895,-0.85372 -39.90742,-0.70526 -0.0598,0.0599 5.01222,3.00115 11.27133,6.53616 6.25911,3.535 13.83253,7.81215 16.82982,9.50478 2.9973,1.69262 7.12754,4.04607 9.17832,5.22986 3.90655,2.25503 4.09116,2.33371 4.64705,1.98036 z m 11.36685,-7.65971 c 6.10836,-4.76089 9.90987,-7.90994 9.86808,-8.17444 -0.046,-0.29104 -2.71279,-1.32441 -8.24241,-3.19389 -7.81191,-2.6411 -8.19351,-2.74033 -8.60467,-2.23761 -0.23663,0.28934 -0.76776,0.65194 -1.1803,0.8058 -0.71222,0.26563 -0.76046,0.41467 -0.95635,2.95465 -0.11346,1.47121 -0.50579,5.96617 -0.87184,9.9888 -0.36605,4.02263 -0.60147,7.41753 -0.52317,7.54423 0.0783,0.12669 0.23962,0.19127 0.35848,0.14351 0.11888,-0.0478 4.68736,-3.57174 10.15218,-7.83105 z m 32.35347,-1.95364 c 0.28473,-0.0205 2.18706,-2.78972 4.85739,-7.07102 4.11076,-6.59075 5.59382,-8.94554 7.87412,-12.50247 0.84127,-1.31225 0.88967,-1.50244 0.51098,-2.00775 -0.27236,-0.36342 -0.37343,-0.97725 -0.28967,-1.75914 0.12051,-1.12482 0.0538,-1.26062 -1.05307,-2.14264 -0.64995,-0.51794 -4.56003,-3.81788 -8.68907,-7.33319 -6.69575,-5.70053 -7.57946,-6.36364 -8.17443,-6.13387 -0.50919,0.19665 -1.41105,1.80936 -3.81005,6.8132 -1.7286,3.60557 -4.48595,9.33058 -6.12741,12.72226 -4.72058,9.75392 -5.76003,12.02995 -5.55204,12.15702 0.107,0.0654 6.7125,-2.84507 14.67898,-6.46761 15.77273,-7.17221 18.64873,-8.44148 18.21323,-8.0381 -0.2815,0.26073 -8.00458,3.82363 -24.23649,11.18106 -4.49594,2.03787 -8.17443,3.86604 -8.17443,4.06259 0,0.48278 18.17097,6.92802 18.93027,6.71455 0.3155,-0.0887 0.78426,-0.17639 1.04169,-0.19489 z m 13.9022,-7.28168 c 12.86236,-7.53745 12.25933,-6.70535 7.57166,-10.44786 -4.45875,-3.55975 -4.66446,-3.69061 -5.26923,-3.35216 -0.28533,0.15968 -0.9335,0.29033 -1.44037,0.29033 -0.90128,0 -1.06341,0.22749 -7.35989,10.32669 -3.54107,5.67967 -6.48705,10.4595 -6.54661,10.62182 -0.0595,0.16232 0.45672,-0.042 1.14729,-0.45382 0.69057,-0.41193 6.0443,-3.55517 11.89715,-6.985 z m -142.579818,3.9291 c 0.0975,-0.15775 0.524592,-0.29089 0.9491,-0.29585 0.707634,-0.009 1.072085,-0.55379 4.381543,-6.55824 3.214098,-5.83144 3.567274,-6.60724 3.222525,-7.07871 -0.276878,-0.37866 -0.692402,-0.51004 -1.458541,-0.46116 -11.001142,0.70191 -29.453522,2.09891 -29.582676,2.23968 -0.094,0.10244 -0.04184,0.23809 0.115911,0.30141 0.157751,0.0633 5.062412,2.81373 10.899246,6.11205 5.836834,3.29831 10.766146,6.00384 10.954025,6.01229 0.187881,0.009 0.421371,-0.11371 0.518867,-0.27147 z m 106.672488,-3.9744 c 0.0835,-0.13514 -1.18174,-5.06973 -2.8117,-10.96576 l -2.96355,-10.72005 -0.85337,-0.17454 c -0.83638,-0.17105 -0.9499,-0.0376 -5.70434,6.7054 -2.66803,3.78396 -4.94557,7.03924 -5.06118,7.23396 -0.11562,0.19472 -0.01,0.755 0.2343,1.24508 0.24448,0.49008 0.37054,1.01074 0.28013,1.15703 -0.14011,0.2267 15.41558,5.67761 16.38625,5.74195 0.18788,0.0125 0.40994,-0.0879 0.49346,-0.22307 z m 8.11521,-14.97226 c 8.39947,-17.39155 8.08477,-16.71069 7.84747,-16.97801 -0.29214,-0.32913 -19.96861,7.1684 -19.86556,7.56959 0.14427,0.56169 -0.55874,1.96934 -1.13847,2.27961 -0.29829,0.15964 -0.47989,0.39131 -0.40355,0.51482 0.14088,0.22795 5.90054,20.87809 5.90054,21.15524 0,1.01514 1.76149,-2.32894 7.65957,-14.54125 z m -29.27473,8.19877 c 0.30594,-0.6598 0.0174,-1.07483 -4.53398,-6.52297 -3.02419,-3.62 -5.02506,-5.78465 -5.2957,-5.72916 -0.23924,0.049 -0.60828,-0.0546 -0.82006,-0.23042 -0.29512,-0.24493 -4.03968,1.14132 -16.02929,5.93411 -8.60432,3.43952 -15.64939,6.33331 -15.65569,6.43065 -0.007,0.0974 2.92486,0.21117 6.51372,0.25299 3.58887,0.0418 10.3973,0.16513 15.12988,0.27403 4.73256,0.10892 11.2506,0.21994 14.48452,0.24671 l 5.87985,0.0487 z m -26.64269,-6.92096 c 8.55806,-3.44497 15.56011,-6.34159 15.56011,-6.43694 0,-0.0954 -4.22261,-1.50039 -9.38358,-3.12232 -7.48914,-2.35359 -9.48612,-2.88491 -9.89148,-2.63177 -0.27934,0.17445 -0.68002,0.31719 -0.89039,0.31719 -0.33825,0 -11.67182,17.68086 -11.67182,18.20855 0,0.1152 0.16134,0.14632 0.35853,0.0692 0.19719,-0.0772 7.36057,-2.95889 15.91863,-6.40387 z m -10.90744,-3.10237 c 4.01949,-6.40242 5.52573,-9.03411 5.41739,-9.46514 -0.13559,-0.53949 -1.34277,-0.84799 -12.52378,-3.2005 -9.304033,-1.9576 -12.408267,-2.51346 -12.51296,-2.24064 -0.119701,0.31194 1.822667,3.93958 8.506307,15.88676 0.750153,1.3409 2.058863,3.69738 2.908263,5.23663 1.19382,2.1634 1.6684,2.78188 2.09083,2.72482 0.37393,-0.0505 2.3045,-2.87408 6.11395,-8.94193 z m 45.8581,1.78167 c 2.74414,-3.89754 4.98524,-7.18882 4.98023,-7.31397 -0.005,-0.12515 -0.18544,-0.46004 -0.40093,-0.74422 -0.36924,-0.48692 -0.52977,-0.49194 -2.7874,-0.0872 -1.31757,0.23624 -5.88048,0.95972 -10.13979,1.60772 -7.82767,1.1909 -9.03491,1.46014 -9.03491,2.01496 0,0.16851 1.00442,1.49424 2.23205,2.94608 1.22762,1.45185 3.34892,4.00456 4.714,5.6727 l 2.48196,3.03297 1.48272,-0.0214 1.48274,-0.0213 z m 76.07336,-0.51402 c 0.10439,-0.31313 -1.06813,-0.34722 -6.58116,-0.19134 -3.68949,0.10429 -9.12823,0.18997 -12.08608,0.19034 l -5.37792,6.6e-4 v 0.6952 c 0,0.54639 0.66008,1.20004 3.08334,3.0533 1.69584,1.29695 3.43914,2.68699 3.87399,3.08896 0.61253,0.56621 0.86778,0.65375 1.13295,0.38856 0.46264,-0.46263 1.51633,-0.4328 1.92065,0.0544 0.2713,0.32691 1.52319,-0.24487 7.11821,-3.25119 3.73396,-2.00632 6.84616,-3.81931 6.91602,-4.02887 z m -175.641508,5.59494 c 12.080329,-0.84842 13.801427,-1.02732 14.123693,-1.46804 0.299453,-0.40952 0.295993,-0.58475 -0.0188,-0.95216 -7.582063,-8.84955 -22.684707,-26.28225 -22.811874,-26.33132 -0.512309,-0.19767 -0.940836,0.96425 -2.722159,7.38101 -4.259873,15.34509 -5.135185,18.36943 -5.275813,18.22881 -0.08052,-0.0805 1.441876,-5.83337 3.383099,-12.78413 2.103468,-7.53167 3.423945,-12.73943 3.268252,-12.88946 -0.1521,-0.14656 -3.372981,1.22083 -7.709455,3.27297 -6.985031,3.30552 -7.462635,3.58038 -7.680171,4.41988 -0.195368,0.75395 0.335508,2.4598 3.365144,10.81323 1.978408,5.45495 3.531444,10.02431 3.45119,10.15417 -0.08025,0.12985 0.0519,0.312 0.293681,0.40479 0.2838,0.1089 0.530902,-0.0583 0.697228,-0.47189 0.253236,-0.62964 0.257942,-0.6281 0.275812,0.0908 0.02782,1.11895 0.490608,1.38707 2.130855,1.23449 0.809933,-0.0753 7.663123,-0.57176 15.229311,-1.10316 z m -17.333201,-1.43636 c 0,-0.31551 0.125117,-0.76724 0.278038,-1.00388 0.230235,-0.35627 0.278039,-0.3316 0.278039,0.14342 0,0.3155 -0.125117,0.76725 -0.278039,1.00387 -0.230234,0.35627 -0.278038,0.33161 -0.278038,-0.14341 z m 41.855416,-10.73545 c 6.434905,-7.99072 7.67474,-9.67518 7.441771,-10.11048 -0.153748,-0.28728 -0.525636,-0.52233 -0.826421,-0.52233 -0.511445,0 -3.659772,-0.52602 -29.259314,-4.88869 -5.440725,-0.92721 -9.974557,-1.59406 -10.075183,-1.48191 -0.100622,0.11216 4.975411,6.16155 11.280079,13.44309 l 11.463036,13.23918 1.127359,-0.0453 c 1.122218,-0.0452 1.162568,-0.0891 8.848673,-9.63351 z m 145.610443,6.00288 c 5.10676,0 5.55878,-0.0415 5.82248,-0.5342 0.24123,-0.45075 -1.35116,-2.63519 -10.19281,-13.98259 -5.76329,-7.39661 -10.72251,-13.69791 -11.02047,-14.00289 -0.43985,-0.4502 -0.57035,-0.47717 -0.69371,-0.14341 -0.13049,0.35308 -1.99843,12.65707 -3.51328,23.14176 -0.25641,1.77472 -0.55633,3.22675 -0.66647,3.22675 -0.11014,0 -0.15111,-0.29041 -0.0911,-0.64535 0.0601,-0.35494 0.94874,-6.3149 1.97486,-13.24436 1.33587,-9.02141 1.77391,-12.6557 1.5426,-12.79865 -0.17767,-0.1098 -1.31856,0.33241 -2.53532,0.9827 -18.67763,9.98224 -20.38516,10.94688 -20.37059,11.50796 0.01,0.38688 2.12089,2.3479 6.48343,6.02327 3.5577,2.99729 7.44423,6.29818 8.63672,7.33531 2.16358,1.88171 2.17033,1.88494 3.19202,1.5337 1.28797,-0.44279 2.50645,0.0899 2.78999,1.21951 l 0.18983,0.75635 6.45759,-0.18793 c 3.55167,-0.10331 8.94905,-0.18793 11.99418,-0.18793 z m 7.3521,-2.79652 c 0.0849,-0.74932 0.64364,-6.73016 1.24171,-13.29076 1.07726,-11.81686 1.08222,-11.93391 0.53101,-12.52373 -0.5392,-0.57697 -0.92115,-0.60186 -12.34561,-0.80448 -6.85923,-0.12166 -11.85515,-0.10201 -11.94693,0.0469 -0.0867,0.14084 2.15866,3.22468 4.98982,6.85298 2.83115,3.62831 7.69098,9.85593 10.79963,13.83916 3.22166,4.12803 5.85074,7.24225 6.11408,7.24226 0.33827,2e-5 0.50331,-0.36481 0.61629,-1.36239 z m -84.07056,-3.36657 c 5.62374,-0.8696 10.30252,-1.58111 10.39731,-1.58111 0.0948,0 0.17235,-0.28209 0.17235,-0.62686 0,-0.34478 0.27196,-0.91636 0.60437,-1.2702 l 0.60438,-0.64332 -5.79706,-17.3912 c -3.18837,-9.56515 -5.73221,-17.45601 -5.65298,-17.53525 0.0792,-0.0792 2.77009,7.73757 5.97967,17.37068 5.41821,16.26201 5.88189,17.51475 6.48272,17.51475 0.35592,0 0.64711,-0.0417 0.64711,-0.0927 0,-0.051 1.86447,-5.52545 4.14325,-12.16545 3.81706,-11.12228 4.11667,-12.14319 3.80558,-12.96738 -0.29883,-0.79169 -1.51208,-1.53499 -10.54586,-6.46103 -5.61449,-3.06153 -10.39241,-5.606308 -10.6176,-5.655078 -0.22518,-0.0488 -0.38712,0.0428 -0.35984,0.2035 0.0273,0.16069 0.12476,0.676968 0.21664,1.147288 0.16129,0.82572 0.15081,0.8206 -0.30499,-0.14876 l -0.47203,-1.003868 -0.40328,0.860458 -0.40329,0.86047 0.16314,-1.00004 c 0.14231,-0.872298 0.11082,-0.945578 -0.24657,-0.573648 -0.22534,0.234528 -7.20333,8.359738 -15.50666,18.056038 -10.57304,12.34682 -15.0719,17.79954 -15.01338,18.19658 0.0705,0.47804 1.54066,1.02686 9.37542,3.4998 7.8416,2.47512 9.38604,2.88061 9.89536,2.59804 0.33194,-0.18416 0.64364,-0.35344 0.69268,-0.37618 0.0943,-0.0438 0.5638,-1.84697 6.22443,-23.90831 3.46707,-13.51237 4.62512,-17.72393 4.25884,-15.4884 -0.0904,0.55213 -0.91135,3.90795 -1.82419,7.45738 -0.91285,3.54943 -2.33467,9.09943 -3.1596,12.33335 -0.82495,3.23393 -2.30483,8.97754 -3.28862,12.7636 -1.58396,6.09572 -1.74103,6.93898 -1.37207,7.36633 0.22915,0.26542 0.56585,0.42837 0.74822,0.36212 0.18237,-0.0662 4.93282,-0.83198 10.55655,-1.7016 z m 34.588,-10.30227 c 0.0553,-0.0553 0.12703,-0.40668 0.15936,-0.78081 0.0791,-0.91641 -11.47778,-17.44667 -12.20288,-17.45415 -0.27606,-0.003 -0.50194,0.0369 -0.50194,0.0882 0,0.13508 -3.30049,9.85277 -6.00091,17.66856 l -2.3216,6.71937 0.59224,0.6304 0.59224,0.63041 9.79145,-3.70074 c 5.3853,-2.03539 9.83671,-3.74598 9.89204,-3.80131 z m -68.33239,4.83304 c 0.47875,-0.3572 1.24331,-3.61772 4.62178,-19.70991 2.43587,-11.60241 3.94565,-19.394238 3.79079,-19.563988 -0.16098,-0.17646 -2.64129,2.1327 -6.62377,6.166678 -3.50152,3.54683 -11.10929,11.22436 -16.90614,17.06119 -7.642753,7.69547 -10.472583,10.71943 -10.295433,11.00173 0.205734,0.32785 22.933973,5.41033 24.408893,5.45831 0.23663,0.008 0.68837,-0.17861 1.00388,-0.41401 z m 17.06081,-18.59929 c 11.8076,-13.78343 14.93138,-17.592708 14.80939,-18.059218 -0.085,-0.32517 0.0201,-0.78958 0.2336,-1.03203 0.33096,-0.3758 0.0191,-1.79446 -2.1146,-9.619124 -1.37655,-5.048065 -2.59116,-9.533247 -2.69912,-9.967074 -0.11503,-0.462164 -0.39212,-0.788757 -0.66922,-0.788757 -0.40246,0 -6.11324,5.717338 -14.03814,14.054289 -3.04337,3.201598 -3.35532,2.995422 7.14886,4.725076 4.7651,0.78463 8.44048,1.47123 8.1675,1.52576 -0.27298,0.0545 -4.18556,-0.50616 -8.69463,-1.24598 l -8.19832,-1.345126 -0.56655,0.608116 c -0.31162,0.33448 -0.75513,0.60814 -0.98563,0.60814 -0.23048,0 -0.41906,0.0344 -0.41906,0.0764 0,0.0421 -1.80697,8.719868 -4.0155,19.284058 -2.20853,10.56421 -4.01552,19.33525 -4.01552,19.49122 0,0.42777 0.0114,0.41476 16.05694,-18.31578 z m 12.05165,-18.814998 c -0.69722,-0.22329 -0.69325,-0.22965 0.14341,-0.22965 0.47325,0 1.18315,0.10331 1.57752,0.22965 0.69722,0.22328 0.69326,0.22965 -0.14341,0.22965 -0.47326,0 -1.18314,-0.10331 -1.57752,-0.22965 z M 39.151244,127.40167 c 3.943806,-1.86965 7.2046,-3.57638 7.246208,-3.79274 0.05144,-0.26751 -6.81568,-3.45416 -21.459717,-9.95828 -11.844453,-5.26069 -21.5954393,-9.50482 -21.6688583,-9.43141 -0.07342,0.0734 5.817125,6.01556 13.0901023,13.20476 9.540805,9.43089 13.437713,13.10399 13.992418,13.18882 0.422852,0.0646 0.962427,0.13346 1.199056,0.15289 0.236628,0.0194 3.656984,-1.49439 7.600791,-3.36404 z m 50.050491,2.50151 c 0,-0.16812 -2.355528,-4.86861 -5.234507,-10.44556 -4.529402,-8.77402 -5.321962,-10.14079 -5.883749,-10.14643 -0.357083,-0.003 -0.878701,-0.14983 -1.159152,-0.32497 -0.423902,-0.26474 -2.829731,0.90002 -14.263345,6.90546 -7.564389,3.97315 -13.808191,7.27866 -13.875117,7.34559 -0.06693,0.0669 -0.06791,0.17282 -0.0022,0.23533 0.06573,0.0626 4.443356,0.8468 9.728057,1.74286 13.401847,2.27241 20.636916,3.51296 25.814006,4.42619 2.44516,0.43132 4.542548,0.73539 4.660863,0.6757 0.118313,-0.0597 0.215116,-0.24607 0.215116,-0.41417 z m 18.470375,-17.15365 c 9.26548,-9.30574 16.77054,-17.042148 16.67791,-17.192038 -0.10288,-0.166387 -0.69652,-0.117356 -1.5246,0.12591 -1.28549,0.37765 -17.2675,4.699768 -40.329327,10.906528 -1.400696,0.37698 -2.562325,0.72253 -2.5814,0.7679 -0.01908,0.0453 -0.230014,0.46395 -0.468752,0.93019 -0.43061,0.84095 -0.391747,0.92949 4.875979,11.10838 4.384768,8.47274 5.41406,10.26171 5.906954,10.26665 0.411432,0.004 5.831453,-5.2513 17.443236,-16.91352 z m 90.96988,10.86519 c 6.21907,-3.32987 11.23627,-6.16941 11.14933,-6.31009 -0.0869,-0.14067 -0.45239,-0.25577 -0.81211,-0.25577 -0.60188,0 -4.02047,-0.52811 -26.98104,-4.16809 -4.4644,-0.70775 -8.13078,-1.16252 -8.26777,-1.02552 -0.137,0.137 0.38342,1.12055 1.17356,2.21795 0.78085,1.08448 3.5046,4.9404 6.05276,8.5687 3.67259,5.22934 4.79491,6.63447 5.41393,6.7781 0.42949,0.0996 0.82208,0.19645 0.87241,0.2151 0.0503,0.0187 5.17985,-2.69051 11.39893,-6.02038 z M 48.046605,122.49848 c 0.610732,0 16.345001,-17.2339 16.345001,-17.90285 0,-0.59322 -0.08376,-0.5984 -12.620181,-0.77958 -27.711441,-0.40052 -48.7605273,-0.48868 -48.3295573,-0.20244 0.236628,0.15716 9.9168803,4.52597 21.5116723,9.70846 15.974005,7.13988 21.28122,9.3929 21.906053,9.29957 0.453538,-0.0677 0.987693,-0.12316 1.187012,-0.12316 z m 16.285052,-7.89873 c 10.146234,-5.31632 11.973772,-6.36824 11.903124,-6.85137 -0.06812,-0.46584 -0.87156,-0.82224 -4.370449,-1.93868 -3.915384,-1.24934 -4.329867,-1.32912 -4.781659,-0.92025 -0.277058,0.25073 -0.863146,0.40903 -1.332273,0.35981 -0.765455,-0.0803 -1.487318,0.61557 -8.380731,8.07874 -9.906881,10.72573 -9.127022,9.75733 -6.888945,8.5544 1.025391,-0.55113 7.258309,-3.82833 13.850933,-7.28265 z M 236.14745,117.221 c 0.0848,-0.22083 -0.6436,-1.87403 -1.61854,-3.67377 -0.97494,-1.79973 -2.99878,-5.54665 -4.49743,-8.32648 -1.97389,-3.66139 -2.88673,-5.0853 -3.31237,-5.16692 -0.44166,-0.0847 -1.05433,0.42674 -2.46709,2.05939 -1.03374,1.19462 -4.22196,4.87099 -7.08494,8.1697 -2.86297,3.29872 -5.2054,6.17053 -5.2054,6.3818 0,0.27586 0.50534,0.3951 1.79264,0.42302 0.98595,0.0214 4.89032,0.1264 8.67637,0.23339 12.44831,0.35178 13.54642,0.34377 13.71676,-0.10016 z m -25.96688,-0.81749 c 0.21019,-0.25383 -0.56084,-4.83987 -2.64013,-15.70352 -2.3871,-12.471742 -3.02473,-15.361946 -3.40536,-15.435521 -0.53428,-0.10331 -30.32076,25.066291 -30.32076,25.621031 0,0.23116 1.67446,0.6122 4.94768,1.12588 2.72122,0.42705 10.4977,1.65855 17.28104,2.73669 6.78335,1.07812 12.6725,1.97232 13.08701,1.9871 0.4145,0.0147 0.88724,-0.13447 1.05052,-0.33166 z m 8.63264,-8.52826 c 5.85614,-6.74075 7.07461,-8.289988 6.96617,-8.857218 -0.10222,-0.53492 -2.36611,-2.16746 -10.20131,-7.356448 -5.53844,-3.667925 -10.1741,-6.573577 -10.30146,-6.456987 -0.25951,0.23757 0.26194,3.232439 3.37216,19.367493 1.18594,6.15234 2.15836,11.29234 2.16094,11.42222 0.0167,0.84219 1.71499,-0.88063 8.0035,-8.11906 z m -46.6305,2.36159 c 0.0678,-0.11833 -0.79586,-5.08502 -1.91912,-11.037108 l -2.04231,-10.822004 -1.10636,-0.563968 -1.10638,-0.563967 -4.77348,3.353669 c -2.62543,1.844515 -5.54791,3.899738 -6.49443,4.567157 -0.94651,0.667423 -2.26835,1.571473 -2.93742,2.009023 -0.80704,0.52779 -1.19319,0.97611 -1.14728,1.33204 0.0498,0.38582 3.00952,2.137318 10.5382,6.236148 5.75796,3.13481 10.5582,5.70066 10.6672,5.70188 0.10901,0.001 0.25363,-0.0945 0.32138,-0.21287 z m 16.56266,-12.846408 c 8.17542,-6.934998 14.77528,-12.693172 14.66632,-12.795961 -0.10895,-0.102769 -4.39286,-0.0043 -9.51982,0.218924 -12.79096,0.556834 -14.05428,0.657109 -14.05428,1.115501 0,0.463877 -1.61712,1.864094 -2.15285,1.864094 -0.23827,0 -0.50465,0.580814 -0.6906,1.505814 -0.75483,3.754758 -3.75347,20.134356 -3.75347,20.502736 0,0.22626 0.14406,0.36337 0.32013,0.30468 0.17607,-0.0587 7.00913,-5.7808 15.18457,-12.715788 z M 176.76765,88.44301 c 0.14908,-0.745406 0.0787,-0.93724 -0.3998,-1.089094 -0.31941,-0.101359 -0.72266,-0.495802 -0.89612,-0.8765 -0.29876,-0.6557 -0.449,-0.692179 -2.85075,-0.692179 -2.09558,0 -2.53536,0.07686 -2.53536,0.44327 0,0.243792 -0.33911,0.782382 -0.75359,1.196859 l -0.75358,0.75359 1.9167,10.347736 c 1.05419,5.691258 1.99418,10.605878 2.08888,10.921378 0.0947,0.3155 1.03402,-4.07799 2.08742,-9.763318 1.05338,-5.685333 1.99667,-10.744108 2.0962,-11.241742 z m -98.915748,17.41978 c 0.248269,0 0.580585,-0.59373 0.842819,-1.50581 1.630053,-5.669538 8.527959,-31.545653 8.434242,-31.63937 -0.0638,-0.06385 -4.604149,6.607735 -10.089683,14.825614 -7.190421,10.771958 -9.886565,15.028726 -9.661459,15.253836 0.171734,0.17173 0.312242,0.53709 0.312242,0.8119 0,0.39242 0.937271,0.79724 4.366675,1.88606 4.182793,1.32799 4.388123,1.36493 4.875979,0.87707 0.280117,-0.28011 0.69375,-0.5093 0.919185,-0.5093 z m 22.966138,-4.59271 c 25.70589,-6.927482 23.37602,-6.243076 23.37602,-6.866797 0,-0.374746 -3.9373,-2.985416 -14.126,-9.366421 C 102.29876,80.171091 94.475517,75.263573 92.683087,74.13128 89.51921,72.132623 89.39791,72.083569 88.52606,72.450153 l -0.898057,0.377608 -4.480347,16.55651 c -4.156166,15.358539 -4.446852,16.593199 -4.017409,17.063499 0.254618,0.27884 0.656546,0.46273 0.893174,0.40864 0.236629,-0.0541 9.594206,-2.56793 20.794619,-5.58633 z M 77.127462,86.807412 c 6.614007,-9.87249 9.693334,-14.703918 9.496835,-14.900413 -0.370517,-0.370518 -0.377573,-1.69548 -0.01098,-2.062063 0.312081,-0.312087 -10.539534,-18.741392 -11.04422,-18.75641 -0.162472,-0.0049 -0.52912,1.378712 -0.814772,3.074549 -1.179701,7.003549 -5.300902,30.76188 -7.375909,42.521407 -0.980087,5.554368 -0.995961,5.741498 -0.437106,5.152548 0.219193,-0.23099 4.802963,-6.994315 10.186152,-15.029618 z m -7.851443,-3.029938 c 1.510013,-8.755243 3.401654,-19.720409 4.203646,-24.367023 1.015018,-5.88085 1.359267,-8.481356 1.132739,-8.556865 -0.400176,-0.133392 -0.43085,-1.561456 -0.0419,-1.950411 0.186833,-0.18683 -0.9754,-6.585983 -3.407645,-18.762223 l -3.691183,-18.47869 -0.181902,7.590494 c -0.202653,8.456479 -1.058629,76.141731 -1.00281,79.296066 0.01954,1.10427 0.08235,1.814148 0.139552,1.577518 0.05722,-0.236618 1.339488,-7.593611 2.849501,-16.348866 z M 226.39566,97.903472 c 0.13977,-0.23728 -2.81222,-30.423646 -2.99229,-30.598308 -0.58872,-0.571063 -1.78694,0.428363 -9.39188,7.833721 -6.83613,6.656735 -8.35734,8.277404 -8.34584,8.891499 0.0116,0.620923 0.42138,1.011714 2.36628,2.256694 1.29372,0.82814 5.83712,3.824538 10.09643,6.658664 4.2593,2.83411 7.83338,5.15742 7.9424,5.1629 0.109,0.005 0.2552,-0.0868 0.3249,-0.20517 z m -69.93304,-4.348959 c 10.42339,-7.383407 9.33309,-6.482006 9.13007,-7.548291 -0.0982,-0.515923 -0.21334,-0.980548 -0.25578,-1.032506 -0.0425,-0.05193 -4.70269,-1.874826 -10.35611,-4.050835 -6.76608,-2.604263 -10.39321,-3.865645 -10.61328,-3.690896 -0.25005,0.198555 -0.16222,0.894409 0.34839,2.76014 0.37551,1.372053 1.57939,5.835813 2.67531,9.919451 1.85804,6.923576 2.30853,8.077806 3.04813,7.809886 0.15834,-0.0573 2.86881,-1.93249 6.02327,-4.166949 z m -31.43694,-0.288 c 0.29387,-0.186078 0.35407,-0.599405 0.22472,-1.543116 -0.0971,-0.708938 -1.3473,-10.303336 -2.77808,-21.320901 -1.43077,-11.017566 -2.69626,-20.126803 -2.81221,-20.24275 -0.76179,-0.761786 -1.90995,-0.0524 -15.80972,9.767913 -13.913504,9.830021 -14.348144,10.165297 -14.279242,11.014923 0.06729,0.829767 0.991556,1.452913 17.400612,11.731587 9.53125,5.970398 17.40221,10.853286 17.49104,10.850869 0.0888,-0.0022 0.34211,-0.118747 0.56288,-0.258525 z m 9.71279,-8.032083 c 7.09892,-7.311686 7.7728,-8.090773 7.74814,-8.957875 -0.0232,-0.817776 -1.51826,-2.703497 -10.76244,-13.575194 -5.9045,-6.944027 -10.93448,-12.67046 -11.17774,-12.725406 -0.35515,-0.08022 -0.40835,0.08934 -0.27,0.860467 0.13913,0.775433 4.60963,35.228252 5.2606,40.541845 0.16875,1.377495 0.45289,1.85051 1.11724,1.859952 0.16997,0.0022 3.80787,-3.599282 8.0842,-8.003789 z m 39.57779,-0.02038 c 0.58164,-0.0011 0.93216,-0.145469 0.93216,-0.382736 0,-0.607253 1.34076,-1.69922 2.08637,-1.69922 0.64526,0 0.82452,-0.467313 3.29631,-8.59308 2.1422,-7.042244 2.55973,-8.712043 2.31358,-9.252303 -0.27906,-0.612458 -0.82225,-0.743295 -7.65529,-1.843906 -4.04522,-0.651569 -11.89936,-1.919648 -17.45364,-2.817953 -5.5543,-0.898305 -10.18305,-1.548943 -10.28613,-1.445863 -0.1031,0.103083 2.23818,3.259839 5.2028,7.015019 2.96462,3.755181 7.26844,9.215587 9.56406,12.134237 l 4.17382,5.306633 1.37744,-4.23e-4 1.37743,-4.23e-4 6.77395,-8.967371 c 3.72567,-4.93205 6.83419,-8.907122 6.90783,-8.833486 0.0736,0.07364 -1.21709,1.914759 -2.86826,4.091395 -1.65119,2.176626 -4.69717,6.195221 -6.76886,8.930221 l -3.7667,4.972701 0.45106,0.872273 c 0.43625,0.843577 0.49972,0.866418 1.93048,0.69452 0.81368,-0.09778 1.89888,-0.178869 2.41159,-0.180235 z m 18.85715,-0.737427 c 5.52055,-0.241017 10.14013,-0.540975 10.26573,-0.666584 0.31329,-0.31328 -18.57907,-18.102398 -19.22508,-18.102398 -0.42908,0 -0.9657,1.47677 -3.14562,8.656765 l -2.62828,8.656779 0.69871,0.830362 c 0.38429,0.456712 0.69872,0.937305 0.69872,1.067998 0,0.130683 0.74215,0.183097 1.64922,0.116449 0.90708,-0.06667 6.16604,-0.318353 11.6866,-0.559371 z M 166.0101,84.27938 c 0.21948,-0.264889 -0.59167,-1.482171 -3.10582,-4.660863 -1.87157,-2.366282 -6.15195,-7.811533 -9.51194,-12.100554 -3.36,-4.289015 -6.26017,-7.806174 -6.44483,-7.815903 -0.40059,-0.02111 -0.35428,-0.235578 -1.83722,8.509274 -1.08074,6.373124 -1.14038,6.987532 -0.71911,7.408795 0.25264,0.252649 0.39414,0.564889 0.31442,0.693859 -0.0797,0.12897 1.04847,0.695832 2.50706,1.25968 1.45859,0.563848 6.13688,2.372265 10.3962,4.018703 4.25931,1.646426 7.8252,3.005222 7.92419,3.019531 0.099,0.01431 0.31368,-0.135333 0.47705,-0.332522 z m 38.10861,-5.44962 c -0.73354,-17.161033 -0.83874,-18.709484 -1.30482,-19.20508 -0.43244,-0.45982 -0.99273,-0.327636 -9.11814,2.151167 -6.06856,1.851326 -8.69402,2.776276 -8.77989,3.093164 -0.0817,0.301728 3.03585,3.424614 9.37444,9.390263 5.22332,4.916006 9.61359,8.93962 9.75616,8.941365 0.15129,0.0022 0.18137,-1.818054 0.0722,-4.370879 z m 9.59504,-3.882004 c 8.15056,-8.034108 8.36837,-8.278075 8.10256,-9.075505 -0.25838,-0.775129 -0.73681,-0.978506 -8.84408,-3.759488 -7.48044,-2.565967 -8.62373,-2.887204 -8.98609,-2.524851 -0.33232,0.332314 -0.38085,0.998758 -0.24319,3.339157 0.0946,1.60819 0.30946,6.150738 0.47747,10.094542 0.35285,8.282792 0.51417,10.182193 0.8648,10.182193 0.13904,0 4.02189,-3.715222 8.62853,-8.256048 z m -68.82853,-7.527119 c 1.08711,-6.428858 1.24286,-7.791592 0.92102,-8.058691 -0.21303,-0.176803 -0.38733,-0.489249 -0.38733,-0.694328 0,-0.205078 -0.42876,-0.514375 -0.95282,-0.687325 -0.52404,-0.17295 -5.94774,-2.231282 -12.05267,-4.574071 -6.10493,-2.342789 -11.16163,-4.159689 -11.23712,-4.037557 -0.20333,0.329006 21.72441,26.04867 22.08898,25.908773 0.17138,-0.0658 0.90036,-3.601321 1.61994,-7.856801 z M 99.173977,62.805409 C 118.81695,48.902156 118.17079,49.3832 118.17079,48.663037 c 0,-0.462644 -0.2431,-0.764976 -0.78876,-0.980966 -0.43382,-0.171718 -4.53179,-1.744861 -9.10661,-3.495874 -4.57482,-1.751013 -9.285873,-3.557088 -10.469013,-4.0135 -9.707929,-3.744959 -9.227475,-3.603024 -10.150063,-2.99852 -0.747542,0.489807 -0.777895,0.598447 -0.632078,2.262353 0.08424,0.961309 0.225793,4.393772 0.314553,7.627694 0.472138,17.20206 0.731917,21.929005 1.225913,22.306765 0.262422,0.200669 0.644499,0.300629 0.849059,0.222133 0.204559,-0.07849 4.596646,-3.132968 9.760186,-6.787713 z M 87.31913,57.82006 c -0.722087,-20.8239 -0.703219,-20.509914 -1.231267,-20.490155 -0.719274,0.02692 -9.87598,11.600522 -9.678894,12.233625 0.08772,0.28178 0.04832,0.689356 -0.08756,0.905725 -0.297386,0.473558 10.806979,19.156562 11.160683,18.777761 0.123707,-0.132492 0.05038,-5.274618 -0.162962,-11.426956 z M 80.790869,42.855611 c 4.106268,-5.076736 4.649463,-5.867887 4.430881,-6.453469 -0.142153,-0.380826 -0.139972,-0.957033 0.0051,-1.341927 C 85.451021,34.465379 84.513741,33.076031 77.293522,23.300501 67.442167,9.9626454 68.047144,10.757824 67.881119,10.9289 c -0.07426,0.07652 1.56097,8.629035 3.633846,19.005591 2.982057,14.927806 3.855195,18.849841 4.182392,18.786828 0.22744,-0.04381 2.51953,-2.683369 5.093532,-5.865708 z m 38.132201,4.254345 0.60886,-0.508827 -0.95825,-17.766553 c -0.52704,-9.771603 -0.96237,-17.919191 -0.9674,-18.10575 -0.005,-0.18656 -0.26046,-0.418969 -0.56764,-0.516465 -0.43954,-0.139502 -3.579,2.460664 -14.73718,12.20564 -13.053773,11.400476 -14.163446,12.439837 -13.986756,13.100506 0.195975,0.732776 0.529776,0.890204 7.770763,3.664865 1.02539,0.392917 6.381803,2.446098 11.903133,4.562624 5.52133,2.116526 10.10331,3.853754 10.18219,3.860508 0.0789,0.0067 0.41739,-0.216693 0.75228,-0.496548 z M 102.21865,22.054602 c 8.77461,-7.653156 13.91789,-12.3312286 13.92814,-12.6683276 0.0157,-0.515245 -0.37309,-0.528168 -10.81129,-0.359418 -5.955163,0.09628 -16.581676,0.254853 -23.614495,0.352393 -11.67408,0.161914 -12.813793,0.220344 -13.09546,0.6713636 -0.257657,0.412575 1.119942,2.428529 8.356396,12.228606 8.006777,10.843297 8.740008,11.747976 9.653593,11.910826 0.543773,0.09692 1.14225,0.136229 1.329948,0.08733 0.187698,-0.0489 6.601625,-5.549145 14.253168,-12.222774 z M 94.149417,155.28533 c 0.27607,-0.0722 0.72781,-0.0722 1.00388,0 0.27607,0.0721 0.0502,0.13117 -0.50194,0.13117 -0.55213,0 -0.778,-0.0591 -0.50194,-0.13117 z m -2.007754,-0.28682 c 0.276067,-0.0721 0.727814,-0.0721 1.003874,0 0.27607,0.0722 0.0502,0.13117 -0.50193,0.13117 -0.552138,0 -0.77801,-0.0591 -0.501944,-0.13117 z"
       id="path1" /></g></svg>
